<svg id="visual" viewBox="0 0 900 600" width="900" height="600" xmlns="http://www.w3.org/2000/svg" xmlns:xlink="http://www.w3.org/1999/xlink" version="1.1"><path d="M314 0L299.8 8.3C285.7 16.7 257.3 33.3 255 50C252.7 66.7 276.3 83.3 287.2 100C298 116.7 296 133.3 295.7 150C295.3 166.7 296.7 183.3 285.8 200C275 216.7 252 233.3 241.5 250C231 266.7 233 283.3 233.5 300C234 316.7 233 333.3 242 350C251 366.7 270 383.3 278.8 400C287.7 416.7 286.3 433.3 291 450C295.7 466.7 306.3 483.3 301.5 500C296.7 516.7 276.3 533.3 262.2 550C248 566.7 240 583.3 236 591.7L232 600L0 600L0 591.7C0 583.3 0 566.7 0 550C0 533.3 0 516.7 0 500C0 483.3 0 466.7 0 450C0 433.3 0 416.7 0 400C0 383.3 0 366.7 0 350C0 333.3 0 316.7 0 300C0 283.3 0 266.7 0 250C0 233.3 0 216.7 0 200C0 183.3 0 166.7 0 150C0 133.3 0 116.7 0 100C0 83.3 0 66.7 0 50C0 33.3 0 16.7 0 8.3L0 0Z" fill="#83c0ce" stroke-linecap="round" stroke-linejoin="miter"></path></svg>